<svg
  xmlns="http://www.w3.org/2000/svg"
  version="1.1"
  xmlns:xlink="http://www.w3.org/1999/xlink"
  xmlns:svgjs="http://svgjs.dev/svgjs"
  width="128"
  height="128"
  viewBox="0 0 128 128"
>
<g transform="matrix(0.8046875,0,0,0.8046875,12.760752631578946,14.67217912279213)">
  <svg
    viewBox="0 0 92.24634140035907 92.24634140035906"
    height="92.24634140035906"
    width="92.24634140035907"
  >
    <g><svg></svg></g>
    <g id="icon-0">
      <svg
        viewBox="0 0 92.24634140035907 92.24634140035906"
        height="92.24634140035906"
        width="92.24634140035907"
      >
        <g>
          <path
            transform="scale(0.92246,0.92246)"
            d="M30 100c-16.569 0-30-13.431-30-30v-40c0-16.569 13.431-30 30-30h40c16.569 0 30 13.431 30 30v40c0 16.569-13.431 30-30 30z"
            fill="#ffffff"
            fill-rule="nonzero"
            stroke="none"
            stroke-width="1"
            stroke-linecap="butt"
            stroke-linejoin="miter"
            stroke-miterlimit="10"
            stroke-dasharray=""
            stroke-dashoffset="0"
            font-family="none"
            font-weight="none"
            font-size="none"
            text-anchor="none"
            style="mix-blend-mode: normal"
            data-fill-palette-color="accent"
          ></path>
        </g>
        <g
          transform="matrix(1,0,0,1,18.449268280071824,19.371731694075407)"
        >
          <svg
            viewBox="0 0 55.347804840215424 53.50287801220824"
            height="53.50287801220824"
            width="55.347804840215424"
          >
            <g>
              <svg
                xmlns="http://www.w3.org/2000/svg"
                xmlns:xlink="http://www.w3.org/1999/xlink"
                version="1.1"
                x="0"
                y="0"
                viewBox="4.5 7.5 90 87"
                enable-background="new -0.5 -0.5 100 100"
                xml:space="preserve"
                height="53.50287801220824"
                width="55.347804840215424"
                class="icon-z$-0"
                data-fill-palette-color="quaternary"
                id="z$-0"
              >
                <g
                  fill="#dedede"
                  data-fill-palette-color="quaternary"
                >
                  <path
                    d="M94.5 94.5h-90v-37h90V94.5z"
                    fill="#000000"
                    data-fill-palette-color="quaternary"
                  ></path>
                </g>
                <g
                  fill="#dedede"
                  data-fill-palette-color="quaternary"
                >
                  <circle
                    cx="49.5"
                    cy="15.5"
                    r="5.0"
                    fill="#000000"
                    data-fill-palette-color="quaternary"
                  ></circle>
                  <path
                    d="M49.5 23.5c-4.411 0-8-3.589-8-8s3.589-8 8-8 8 3.589 8 8S53.911 23.5 49.5 23.5zM49.5 13.5c-1.103 0-2 0.897-2 2s0.897 2 2 2c1.103 0 2-0.897 2-2S50.603 13.5 49.5 13.5z"
                    fill="#000000"
                    data-fill-palette-color="quaternary"
                  ></path>
                </g>
                <path
                  d="M57.5 27.5h-16c-6.271 0-11 5.589-11 13v14h29v-6h-23c0 0 0.015-8.546 0.036-8.818C36.682 39.007 37.282 38.5 38 38.5c0.827 0 1.5 0.673 1.5 1.5v5.5h20V40c0-0.827 0.673-1.5 1.5-1.5 0.718 0 1.318 0.507 1.465 1.182C62.485 39.954 62.5 54.5 62.5 54.5h6v-14C68.5 33.089 63.771 27.5 57.5 27.5z"
                  fill="#000000"
                  data-fill-palette-color="quaternary"
                ></path>
              </svg>
            </g>
          </svg>
        </g>
      </svg>
    </g>
  </svg>
</g>
</svg>
