<svg xmlns="http://www.w3.org/2000/svg" version="1.1" xmlns:xlink="http://www.w3.org/1999/xlink" xmlns:svgjs="http://svgjs.dev/svgjs" width="2000" height="883" viewBox="0 0 2000 883"><g transform="matrix(1,0,0,1,-1.2121212121212466,-0.6244482021080557)"><svg viewBox="0 0 396 175" data-background-color="#dedede" preserveAspectRatio="xMidYMid meet" height="883" width="2000" xmlns="http://www.w3.org/2000/svg" xmlns:xlink="http://www.w3.org/1999/xlink"><g id="tight-bounds" transform="matrix(1,0,0,1,0.2400000000000091,0.12375813745063624)"><svg viewBox="0 0 395.52 174.75248372509873" height="174.75248372509873" width="395.52"><g><svg viewBox="0 0 395.52 174.75248372509873" height="174.75248372509873" width="395.52"><g transform="matrix(1,0,0,1,0,108.00404566405744)"><svg viewBox="0 0 395.52 66.74843806104128" height="66.74843806104128" width="395.52"><g id="textblocktransform"><svg viewBox="0 0 395.52 66.74843806104128" height="66.74843806104128" width="395.52" id="textblock"><g><svg viewBox="0 0 395.52 66.74843806104128" height="66.74843806104128" width="395.52"><g transform="matrix(1,0,0,1,0,0)"><svg width="395.52" viewBox="4.7 -37 278.48 47" height="66.74843806104128" data-palette-color="#374151"><path d="M6.25 0L6.25 0Q5.55 0 5.13-0.45 4.7-0.9 4.7-1.5L4.7-1.5 4.7-33.5Q4.7-34.1 5.15-34.55 5.6-35 6.2-35L6.2-35 24.4-35Q25.05-35 25.48-34.58 25.9-34.15 25.9-33.5L25.9-33.5Q25.9-32.9 25.48-32.48 25.05-32.05 24.4-32.05L24.4-32.05 7.55-32.05 7.75-32.35 7.75-19.05 7.5-19.5 22.15-19.5Q22.8-19.5 23.23-19.07 23.65-18.65 23.65-18.05L23.65-18.05Q23.65-17.4 23.23-17 22.8-16.6 22.15-16.6L22.15-16.6 7.4-16.6 7.75-17 7.75-1.5Q7.75-0.9 7.33-0.45 6.9 0 6.25 0ZM52-25.55L52-25.55Q52.65-25.55 53.07-25.1 53.5-24.65 53.5-24L53.5-24 53.5-1.5Q53.5-0.9 53.05-0.45 52.6 0 52 0L52 0Q51.3 0 50.9-0.45 50.5-0.9 50.5-1.5L50.5-1.5 50.5-7.45 51.35-7.85Q51.35-6.45 50.57-5 49.8-3.55 48.45-2.3 47.1-1.05 45.27-0.28 43.45 0.5 41.3 0.5L41.3 0.5Q37.95 0.5 35.27-1.25 32.6-3 31.07-6.05 29.55-9.1 29.55-12.9L29.55-12.9Q29.55-16.8 31.1-19.78 32.65-22.75 35.3-24.45 37.95-26.15 41.25-26.15L41.25-26.15Q43.4-26.15 45.27-25.4 47.15-24.65 48.55-23.35 49.95-22.05 50.75-20.38 51.55-18.7 51.55-16.9L51.55-16.9 50.5-17.65 50.5-24Q50.5-24.65 50.9-25.1 51.3-25.55 52-25.55ZM41.6-2.3L41.6-2.3Q44.25-2.3 46.3-3.68 48.35-5.05 49.52-7.48 50.7-9.9 50.7-12.9L50.7-12.9Q50.7-15.85 49.52-18.2 48.35-20.55 46.3-21.95 44.25-23.35 41.6-23.35L41.6-23.35Q39-23.35 36.92-22 34.85-20.65 33.67-18.3 32.5-15.95 32.5-12.9L32.5-12.9Q32.5-9.9 33.65-7.48 34.8-5.05 36.87-3.68 38.95-2.3 41.6-2.3ZM59.9-4.05L59.9-4.05Q59.5-4.65 59.52-5.23 59.55-5.8 60.15-6.15L60.15-6.15Q60.55-6.5 61.07-6.45 61.6-6.4 62.05-5.95L62.05-5.95Q63.4-4.2 65.32-3.13 67.25-2.05 69.9-2.05L69.9-2.05Q71.3-2.05 72.67-2.53 74.05-3 74.95-3.98 75.84-4.95 75.84-6.45L75.84-6.45Q75.84-8 74.95-8.95 74.05-9.9 72.62-10.45 71.2-11 69.59-11.4L69.59-11.4Q67.9-11.85 66.3-12.43 64.7-13 63.47-13.88 62.25-14.75 61.5-16 60.75-17.25 60.75-19.05L60.75-19.05Q60.75-21.15 61.9-22.75 63.05-24.35 65.02-25.25 67-26.15 69.5-26.15L69.5-26.15Q70.75-26.15 72.2-25.83 73.65-25.5 75.05-24.75 76.45-24 77.55-22.7L77.55-22.7Q78-22.25 78-21.68 78-21.1 77.5-20.65L77.5-20.65Q77.09-20.35 76.57-20.35 76.05-20.35 75.7-20.75L75.7-20.75Q74.5-22.1 72.84-22.8 71.2-23.5 69.3-23.5L69.3-23.5Q67.84-23.5 66.57-23.03 65.3-22.55 64.45-21.6 63.6-20.65 63.6-19.1L63.6-19.1Q63.7-17.65 64.62-16.75 65.55-15.85 67.07-15.25 68.59-14.65 70.5-14.15L70.5-14.15Q72.09-13.75 73.57-13.2 75.05-12.65 76.17-11.83 77.3-11 77.97-9.75 78.65-8.5 78.65-6.6L78.65-6.6Q78.65-4.4 77.42-2.8 76.2-1.2 74.15-0.35 72.09 0.5 69.59 0.5L69.59 0.5Q66.9 0.5 64.37-0.55 61.85-1.6 59.9-4.05ZM83.14-25.45L83.14-25.45 94.79-25.45Q95.39-25.45 95.79-25.03 96.19-24.6 96.19-24L96.19-24Q96.19-23.45 95.79-23.05 95.39-22.65 94.79-22.65L94.79-22.65 83.14-22.65Q82.54-22.65 82.12-23.08 81.69-23.5 81.69-24.05L81.69-24.05Q81.69-24.65 82.12-25.05 82.54-25.45 83.14-25.45ZM88.29-32.5L88.29-32.5Q88.94-32.5 89.37-32.05 89.79-31.6 89.79-31L89.79-31 89.79-5.9Q89.79-4.5 90.17-3.8 90.54-3.1 91.14-2.88 91.74-2.65 92.34-2.65L92.34-2.65Q92.74-2.65 93.07-2.78 93.39-2.9 93.79-2.9L93.79-2.9Q94.24-2.9 94.57-2.55 94.89-2.2 94.89-1.65L94.89-1.65Q94.89-0.95 94.09-0.48 93.29 0 92.19 0L92.19 0Q91.74 0 90.84-0.08 89.94-0.15 88.99-0.63 88.04-1.1 87.42-2.3 86.79-3.5 86.79-5.75L86.79-5.75 86.79-31Q86.79-31.6 87.22-32.05 87.64-32.5 88.29-32.5ZM103.99-35L117.24-35Q121.44-35 123.82-32.73 126.19-30.45 126.19-26.4L126.19-26.4Q126.19-24.3 125.29-22.4 124.39-20.5 122.64-19.33 120.89-18.15 118.29-18L118.29-18 118.09-19Q119.94-19 121.72-18.48 123.49-17.95 124.89-16.8 126.29-15.65 127.14-13.93 127.99-12.2 127.99-9.75L127.99-9.75Q127.99-7.15 127.12-5.28 126.24-3.4 124.77-2.25 123.29-1.1 121.39-0.55 119.49 0 117.44 0L117.44 0 103.99 0Q103.39 0 102.94-0.45 102.49-0.9 102.49-1.5L102.49-1.5 102.49-33.5Q102.49-34.1 102.94-34.55 103.39-35 103.99-35L103.99-35ZM116.84-32.05L116.84-32.05 105.09-32.05 105.69-32.95 105.69-18.8 105.14-19.55 116.84-19.55Q119.44-19.6 121.22-21.25 122.99-22.9 122.99-26.15L122.99-26.15Q122.99-28.9 121.39-30.48 119.79-32.05 116.84-32.05ZM117.19-16.55L117.19-16.55 105.44-16.55 105.69-16.85 105.69-2.5 105.39-2.95 117.29-2.95Q120.49-2.95 122.64-4.58 124.79-6.2 124.79-9.75L124.79-9.75Q124.79-12.25 123.74-13.75 122.69-15.25 120.94-15.9 119.19-16.55 117.19-16.55ZM157.84-12.8L157.84-12.8Q157.84-9 156.16-5.98 154.49-2.95 151.64-1.23 148.79 0.5 145.19 0.5L145.19 0.5Q141.64 0.5 138.76-1.23 135.89-2.95 134.21-5.98 132.54-9 132.54-12.8L132.54-12.8Q132.54-16.65 134.21-19.65 135.89-22.65 138.76-24.4 141.64-26.15 145.19-26.15L145.19-26.15Q148.79-26.15 151.64-24.4 154.49-22.65 156.16-19.65 157.84-16.65 157.84-12.8ZM154.84-12.8L154.84-12.8Q154.84-15.85 153.59-18.23 152.34-20.6 150.16-21.98 147.99-23.35 145.19-23.35L145.19-23.35Q142.44-23.35 140.26-21.98 138.09-20.6 136.81-18.23 135.54-15.85 135.54-12.8L135.54-12.8Q135.54-9.75 136.81-7.4 138.09-5.05 140.26-3.68 142.44-2.3 145.19-2.3L145.19-2.3Q147.99-2.3 150.16-3.68 152.34-5.05 153.59-7.4 154.84-9.75 154.84-12.8ZM187.59-12.8L187.59-12.8Q187.59-9 185.91-5.98 184.24-2.95 181.38-1.23 178.53 0.5 174.94 0.5L174.94 0.5Q171.38 0.5 168.51-1.23 165.63-2.95 163.96-5.98 162.28-9 162.28-12.8L162.28-12.8Q162.28-16.65 163.96-19.65 165.63-22.65 168.51-24.4 171.38-26.15 174.94-26.15L174.94-26.15Q178.53-26.15 181.38-24.4 184.24-22.65 185.91-19.65 187.59-16.65 187.59-12.8ZM184.59-12.8L184.59-12.8Q184.59-15.85 183.34-18.23 182.09-20.6 179.91-21.98 177.73-23.35 174.94-23.35L174.94-23.35Q172.19-23.35 170.01-21.98 167.84-20.6 166.56-18.23 165.28-15.85 165.28-12.8L165.28-12.8Q165.28-9.75 166.56-7.4 167.84-5.05 170.01-3.68 172.19-2.3 174.94-2.3L174.94-2.3Q177.73-2.3 179.91-3.68 182.09-5.05 183.34-7.4 184.59-9.75 184.59-12.8ZM195.53 0L195.53 0Q194.88 0 194.46-0.45 194.03-0.9 194.03-1.5L194.03-1.5 194.03-35.5Q194.03-36.1 194.46-36.55 194.88-37 195.53-37L195.53-37Q196.18-37 196.61-36.55 197.03-36.1 197.03-35.5L197.03-35.5 197.03-1.5Q197.03-0.9 196.61-0.45 196.18 0 195.53 0ZM212.53-25.65L212.53-25.65Q213.08-25.65 213.53-25.18 213.98-24.7 213.98-24.15L213.98-24.15Q213.98-23.5 213.43-23L213.43-23 196.63-8.7 196.48-12.25 211.48-25.15Q211.93-25.65 212.53-25.65ZM212.93 0L212.93 0Q212.28 0 211.83-0.55L211.83-0.55 200.43-12.65 202.68-14.7 213.98-2.65Q214.43-2.15 214.43-1.5L214.43-1.5Q214.43-0.8 213.88-0.4 213.33 0 212.93 0ZM223.38-24.5L223.38-1.5Q223.38-0.9 222.93-0.45 222.48 0 221.88 0L221.88 0Q221.23 0 220.81-0.45 220.38-0.9 220.38-1.5L220.38-1.5 220.38-24.5Q220.38-25.1 220.81-25.55 221.23-26 221.88-26L221.88-26Q222.53-26 222.96-25.55 223.38-25.1 223.38-24.5L223.38-24.5ZM221.88-29.35L221.88-29.35Q220.83-29.35 220.31-29.83 219.78-30.3 219.78-31.2L219.78-31.2 219.78-31.7Q219.78-32.6 220.35-33.08 220.93-33.55 221.93-33.55L221.93-33.55Q222.88-33.55 223.41-33.08 223.93-32.6 223.93-31.7L223.93-31.7 223.93-31.2Q223.93-30.3 223.41-29.83 222.88-29.35 221.88-29.35ZM243.23-26.15L243.23-26.15Q246.53-26.15 248.5-24.83 250.48-23.5 251.35-21.23 252.23-18.95 252.23-16.2L252.23-16.2 252.23-1.5Q252.23-0.9 251.78-0.45 251.33 0 250.73 0L250.73 0Q250.03 0 249.63-0.45 249.23-0.9 249.23-1.5L249.23-1.5 249.23-16.05Q249.23-18.05 248.58-19.7 247.93-21.35 246.45-22.35 244.98-23.35 242.58-23.35L242.58-23.35Q240.43-23.35 238.5-22.35 236.58-21.35 235.38-19.7 234.18-18.05 234.18-16.05L234.18-16.05 234.18-1.5Q234.18-0.9 233.73-0.45 233.28 0 232.68 0L232.68 0Q231.98 0 231.58-0.45 231.18-0.9 231.18-1.5L231.18-1.5 231.18-23.9Q231.18-24.5 231.6-24.95 232.03-25.4 232.68-25.4L232.68-25.4Q233.33-25.4 233.75-24.95 234.18-24.5 234.18-23.9L234.18-23.9 234.18-19.7 233.03-17.9Q233.13-19.5 234.05-20.98 234.98-22.45 236.43-23.63 237.88-24.8 239.65-25.48 241.43-26.15 243.23-26.15ZM270.52-26.15L270.52-26.15Q272.73-26.15 274.63-25.38 276.52-24.6 277.95-23.38 279.38-22.15 280.18-20.78 280.98-19.4 280.98-18.15L280.98-18.15 280.18-19.35 280.18-24Q280.18-24.65 280.6-25.1 281.02-25.55 281.68-25.55L281.68-25.55Q282.32-25.55 282.75-25.1 283.18-24.65 283.18-24L283.18-24 283.18-2.35Q283.18 1.65 281.52 4.4 279.88 7.15 277.05 8.58 274.23 10 270.63 10L270.63 10Q268.88 10 266.95 9.55 265.02 9.1 263.65 8.4 262.27 7.7 262.07 6.95L262.07 6.95Q261.73 6.5 261.75 6.08 261.77 5.65 262.18 5.35L262.18 5.35Q262.63 5 263.2 5.28 263.77 5.55 264.88 6L264.88 6Q265.32 6.15 266.2 6.45 267.07 6.75 268.25 6.98 269.43 7.2 270.68 7.2L270.68 7.2Q275.18 7.2 277.68 4.63 280.18 2.05 280.18-2.15L280.18-2.15 280.18-6.95 280.73-6.8Q280.27-5 279.23-3.65 278.18-2.3 276.77-1.38 275.38-0.45 273.77 0.03 272.18 0.5 270.57 0.5L270.57 0.5Q267.13 0.5 264.35-1.25 261.57-3 259.98-6 258.38-9 258.38-12.85L258.38-12.85Q258.38-16.65 259.98-19.68 261.57-22.7 264.32-24.43 267.07-26.15 270.52-26.15ZM270.82-23.35L270.82-23.35Q268.13-23.35 265.95-21.98 263.77-20.6 262.55-18.23 261.32-15.85 261.32-12.85L261.32-12.85Q261.32-9.85 262.55-7.45 263.77-5.05 265.95-3.68 268.13-2.3 270.82-2.3L270.82-2.3Q273.57-2.3 275.73-3.65 277.88-5 279.13-7.38 280.38-9.75 280.38-12.85L280.38-12.85Q280.38-15.95 279.13-18.32 277.88-20.7 275.73-22.03 273.57-23.35 270.82-23.35Z" opacity="1" transform="matrix(1,0,0,1,0,0)" fill="#000000" class="wordmark-text-0" data-fill-palette-color="primary" id="text-0"></path></svg></g></svg></g></svg></g></svg></g><g transform="matrix(1,0,0,1,151.63682929982045,0)"><svg viewBox="0 0 92.24634140035907 92.24634140035906" height="92.24634140035906" width="92.24634140035907"><g><svg></svg></g><g id="icon-0"><svg viewBox="0 0 92.24634140035907 92.24634140035906" height="92.24634140035906" width="92.24634140035907"><g><path transform="scale(0.92246,0.92246)" d="M30 100c-16.569 0-30-13.431-30-30v-40c0-16.569 13.431-30 30-30h40c16.569 0 30 13.431 30 30v40c0 16.569-13.431 30-30 30z" fill="#000000" fill-rule="nonzero" stroke="none" stroke-width="1" stroke-linecap="butt" stroke-linejoin="miter" stroke-miterlimit="10" stroke-dasharray="" stroke-dashoffset="0" font-family="none" font-weight="none" font-size="none" text-anchor="none" style="mix-blend-mode: normal" data-fill-palette-color="accent"></path></g><g transform="matrix(1,0,0,1,18.449268280071824,19.371731694075407)"><svg viewBox="0 0 55.347804840215424 53.50287801220824" height="53.50287801220824" width="55.347804840215424"><g><svg xmlns="http://www.w3.org/2000/svg" xmlns:xlink="http://www.w3.org/1999/xlink" version="1.1" x="0" y="0" viewBox="4.5 7.5 90 87" enable-background="new -0.5 -0.5 100 100" xml:space="preserve" height="53.50287801220824" width="55.347804840215424" class="icon-z$-0" data-fill-palette-color="quaternary" id="z$-0"><g fill="#dedede" data-fill-palette-color="quaternary"><path d="M94.5 94.5h-90v-37h90V94.5z" fill="#ffffff" data-fill-palette-color="quaternary"></path></g><g fill="#dedede" data-fill-palette-color="quaternary"><circle cx="49.5" cy="15.5" r="5.0" fill="#ffffff" data-fill-palette-color="quaternary"></circle><path d="M49.5 23.5c-4.411 0-8-3.589-8-8s3.589-8 8-8 8 3.589 8 8S53.911 23.5 49.5 23.5zM49.5 13.5c-1.103 0-2 0.897-2 2s0.897 2 2 2c1.103 0 2-0.897 2-2S50.603 13.5 49.5 13.5z" fill="#ffffff" data-fill-palette-color="quaternary"></path></g><path d="M57.5 27.5h-16c-6.271 0-11 5.589-11 13v14h29v-6h-23c0 0 0.015-8.546 0.036-8.818C36.682 39.007 37.282 38.5 38 38.5c0.827 0 1.5 0.673 1.5 1.5v5.5h20V40c0-0.827 0.673-1.5 1.5-1.5 0.718 0 1.318 0.507 1.465 1.182C62.485 39.954 62.5 54.5 62.5 54.5h6v-14C68.5 33.089 63.771 27.5 57.5 27.5z" fill="#ffffff" data-fill-palette-color="quaternary"></path></svg></g></svg></g></svg></g></svg></g><g></g></svg></g><defs></defs></svg><rect width="395.52" height="174.75248372509873" fill="none" stroke="none" visibility="hidden"></rect></g></svg></g></svg>